<?xml version="1.0" encoding="UTF-8"?>
<svg id="Layer_2" data-name="Layer 2" xmlns="http://www.w3.org/2000/svg" viewBox="0 0 1836.96 1784.78">
  <defs>
    <style>
      .cls-1 {
        fill: #ad0e36;
      }
    </style>
  </defs>
  <g id="Layer_1-2" data-name="Layer 1">
    <g>
      <path class="cls-1" d="M1836.96,1318.85c-11.75,16.29-25.52,30.91-40.91,43.44-37.51,30.58-84.67,48.79-135.88,48.79-26.64,0-52.18-4.92-75.84-13.95-29.32-11.19-55.75-29.39-77.82-52.5l-141.46-148.19-140.67-147.37-51.98-55.33c-5.67-6.24-11.63-12.18-17.86-17.82-44.69-40.51-102.96-65.01-166.7-65.01-19.87,0-39.2,2.38-57.76,6.88,21.31-35.88,50.51-66.06,85.07-87.91,38.4-24.28,83.4-38.25,131.52-38.25,25.48,0,50.08,3.92,73.3,11.21,40.09,12.59,76.34,35.94,105.93,66.94l13.69,14.34,319.99,335.21c10.79,11.3,21.23,22.96,31.62,34.67,6.49,7.32,13.5,14.14,20.95,20.4,33.19,27.84,75.3,44.5,121.13,44.5,1.24,0,2.46-.01,3.68-.04Z"/>
      <path class="cls-1" d="M1747.54,1452.06c-28.31,42.24-66.27,76.85-110.55,100.29-40.68,21.57-86.67,33.71-135.37,33.71-33.13,0-65.02-5.62-94.82-16.01-43.94-15.31-83.64-41.63-116.38-75.92l-266.76-279.45c-16.12-16.88-32.17-33.84-47.76-51.26-7.79-8.71-16.05-16.96-24.75-24.69-52.38-46.65-120.25-74.8-194.4-74.8-11.73,0-23.3,.71-34.68,2.07,25.11-29.97,55.56-54.9,89.81-73.15,40.83-21.78,87.04-34.04,136-34.04,1.52,0,3.03,.01,4.54,.04,77.46,1.2,151.26,34.84,206.04,92.22l259.86,272.21c12.53,13.13,24.76,26.57,36.95,40.06,7.62,8.43,15.67,16.42,24.13,23.92,52.33,46.45,120.05,74.46,194.01,74.46,25.58,0,50.43-3.35,74.14-9.67Z"/>
      <path class="cls-1" d="M1613.37,32.96c-55.07,6.61-104.56,32.46-142.21,70.96l-.88,.91-2.4,2.52-.87,.91L899.51,702.74l-426.91,447.21c-10.73,11.24-16.76,26.49-16.76,42.39v274.07c0,126.45,55.31,239.38,141.99,313.63-19.32,3.12-39.11,4.73-59.25,4.73-28.4,0-56.07-3.21-82.73-9.29-144.49-32.99-258.8-150.62-293.23-300.8-6.99-30.45-10.68-62.24-10.68-94.93V403.42C151.92,249.88,94.09,110.48,0,7.83c53.69,9.28,104.74,26.79,151.92,51.24,180.08,93.28,303.92,287.69,303.92,512.4v212.79L1042.65,169.54l4.2-4.4C1145.37,63.04,1280.84,0,1430.37,0c43.18,0,85.19,5.25,125.47,15.2,19.61,4.83,38.8,10.77,57.52,17.76Z"/>
      <path class="cls-1" d="M1543.85,1681c-37.32,19.4-77.34,33.95-119.31,42.89-31.74,6.77-64.59,10.32-98.24,10.32-15.05,0-29.93-.71-44.63-2.1-113.12-10.69-218.79-63.72-299.11-147.85l-1.39-1.45-29.89-31.31-220.77-231.27c-54.7-57.3-128.38-90.87-205.73-92.07-1.5-.02-3-.03-4.51-.03-11.42,0-22.7,.66-33.79,1.97,23.76-30.47,52.88-56.19,85.84-75.57,43.4-25.53,93.48-40.08,146.8-40.08,43.66,0,85.14,9.77,122.57,27.32,28.14,13.2,53.99,30.8,76.74,51.95l.03,.03,25.27,26.47s.06,.07,.1,.11l280.4,293.74c10.94,12.65,22.47,24.73,34.55,36.18,76.82,72.88,175.79,120.6,285.07,130.76Z"/>
    </g>
  </g>
</svg>